PathFileType	4	(X/Y/Z)	\\Move.snu.ac.kr\motion\Animal\091204_091205_Bird\091205_bird\Project 2\Capture day 2\Session 1\pigeon_025.trc
DataRate	CameraRate	NumFrames	NumMarkers	Units	OrigDataRate	OrigDataStartFrame	OrigNumFrames
240.0	240.0	8	14	mm	240.0	97	2738
Frame#	Time	14MarkersBird:Head			14MarkersBird:C_back			14MarkersBird:Spine			14MarkersBird:L-shoulder			14MarkersBird:L-elbow			14MarkersBird:L-wrist			14MarkersBird:L-hand			14MarkersBird:R-shoulder			14MarkersBird:R-elbow			14MarkersBird:R-Wrist			14MarkersBird:R-hand			14MarkersBird:C_Tail			14MarkersBird:L-Tale			14MarkersBird:R-Tale			
		X1	Y1	Z1	X2	Y2	Z2	X3	Y3	Z3	X4	Y4	Z4	X5	Y5	Z5	X6	Y6	Z6	X7	Y7	Z7	X8	Y8	Z8	X9	Y9	Z9	X10	Y10	Z10	X11	Y11	Z11	X12	Y12	Z12	X13	Y13	Z13	X14	Y14	Z14	

2029	8.450	314.28363	1754.35449	1495.16614	299.59039	1741.78174	1554.05078	286.51904	1724.44275	1606.05054	281.25912	1742.06738	1522.79077	258.82159	1742.64783	1553.79956	251.02600	1754.37805	1512.00049	240.92508	1731.48206	1497.64868	330.78687	1734.03320	1530.97766	340.50635	1735.83740	1565.41687	358.55911	1742.07434	1527.64685	374.16006	1711.66052	1507.54016	253.47133	1638.98145	1691.96545	197.95734	1657.79138	1624.27637	350.16580	1651.86426	1673.53699	
2030	8.454	313.30682	1757.11841	1491.11584	299.20630	1745.67444	1550.05872	286.08163	1728.92908	1602.32825	280.57510	1745.65674	1518.45667	261.83716	1750.70789	1552.58228	250.01160	1765.30786	1512.75049	232.64914	1743.47034	1503.73071	329.21176	1738.53979	1527.85352	335.89777	1745.76794	1563.81165	358.94049	1753.86475	1528.54468	381.38629	1724.52258	1515.43176	253.89006	1642.72327	1688.22192	197.33791	1662.80872	1620.81079	350.77374	1655.66516	1668.14136	
2031	8.458	312.38898	1759.98511	1487.20313	298.79034	1749.44263	1546.16785	285.62296	1733.20764	1598.58093	279.76254	1749.15601	1514.04468	265.74496	1757.92078	1550.85803	250.46559	1775.39160	1513.43713	227.26219	1756.74731	1511.03552	327.14914	1744.17468	1523.90564	330.53268	1755.17932	1561.03821	357.48477	1765.09375	1528.80017	386.04077	1739.12463	1524.55603	254.38274	1645.10449	1683.41150	196.20352	1668.30139	1616.27612	351.93265	1659.36169	1662.22681	
2032	8.462	311.51926	1763.04944	1483.42554	298.37827	1753.15759	1542.23279	285.13962	1737.26990	1594.82373	278.86606	1752.58142	1509.70337	270.15143	1764.11975	1548.53284	252.16422	1784.82227	1513.96948	225.35503	1771.18506	1518.30200	325.24994	1749.21704	1520.07764	324.92300	1763.42480	1556.94421	354.50446	1775.74316	1528.37988	387.20593	1755.43359	1533.90784	254.90131	1646.41003	1677.66589	194.73654	1674.05774	1610.84705	353.63446	1663.20496	1655.94141	
2033	8.467	310.67853	1766.34277	1479.76904	297.96259	1756.84570	1538.06714	284.62292	1741.09900	1591.08508	278.01462	1755.89136	1505.66248	274.64023	1769.35547	1545.56030	254.93225	1793.81934	1514.33374	226.90117	1786.30334	1524.55481	323.39612	1753.84912	1516.17859	319.39099	1770.26611	1551.71948	350.28510	1785.90491	1527.35815	384.38641	1772.94958	1542.22375	255.34296	1646.92627	1671.15686	193.14163	1679.84216	1604.82349	355.84146	1667.33997	1649.42163	
2034	8.471	309.85104	1769.84009	1476.20862	297.78058	1760.58105	1533.52856	284.05032	1744.67224	1587.39563	277.35449	1759.10327	1502.01880	278.88687	1773.88770	1541.86841	258.64383	1802.38428	1514.36572	231.68564	1801.32690	1529.32043	321.80212	1758.00476	1512.26733	313.73709	1776.78589	1546.07300	345.04013	1795.58911	1525.62036	377.67706	1790.83240	1548.39673	255.58322	1646.97302	1664.12988	191.58783	1685.44897	1598.62842	358.41977	1671.81677	1642.83813	
2035	8.475	309.03448	1773.48389	1472.72205	297.05197	1764.09241	1528.78308	283.40213	1747.96448	1583.77954	276.92331	1762.24890	1498.73157	282.71570	1778.10193	1537.34399	263.04376	1810.31433	1513.68860	239.32135	1815.28186	1532.42236	320.51932	1761.79163	1508.44189	308.71274	1781.00903	1539.50439	339.13898	1804.61011	1522.89563	367.79361	1808.14722	1551.68823	255.55557	1646.95825	1656.97253	190.16957	1690.71375	1592.72705	361.11157	1676.61414	1636.46667	
2036	8.479	308.22049	1777.19873	1469.29663	296.34219	1767.71936	1524.31702	282.67581	1750.98157	1580.33740	276.57391	1765.32141	1495.68262	286.04471	1782.39758	1531.87097	267.55582	1817.35193	1511.93872	248.96907	1827.35486	1533.70837	319.41620	1765.34705	1504.78833	306.66461	1786.60437	1532.73218	333.21149	1812.63611	1519.04126	356.01587	1824.07104	1551.69226	255.31726	1647.25391	1650.18762	188.90297	1695.57483	1587.57153	363.60699	1681.61023	1630.65955	
